<svg xmlns="http://www.w3.org/2000/svg" viewBox="0 0 458 428"><defs><style>.cls-1{fill:#fff;}.cls-2{fill:none;}</style></defs><g id="Layer_2" data-name="Layer 2"><g id="Icon_Frey" data-name="Icon Frey"><g id="Icon_Frey-2" data-name="Icon Frey"><path class="cls-1" d="M430,0V29H412V0H384V29H368V0H340V29H320V0H294V110H277v17H263V109H239v18H221V108H197v19H183V108H165V0H138V30H120V0H93V30H75V0H49V30H29V0H0V427.5c10.77,0,19.5-4.73,19.5-15.5H21c0,10.77,8.73,15.5,19.5,15.5S60,422.77,60,412c0,10.77,8.73,15.5,19.5,15.5S99,422.77,99,412h1c0,10.77,8.73,15.5,19.5,15.5S139,422.77,139,412h.5c0,10.77,10.69,16,24.5,16V412h0V224s-3-56,68-56c0,0,62,1,62,56V412h6c0,10.77,8.73,15.5,19.5,15.5S339,422.77,339,412c0,10.77,8.73,15.5,19.5,15.5S378,422.77,378,412h1c0,10.77,8.73,15.5,19.5,15.5S418,422.77,418,412h1c0,10.77,8.73,15.5,19.5,15.5S458,422.77,458,412V0Z"/><rect class="cls-2" x="78" y="276" width="11" height="68"/><rect class="cls-2" x="370" y="276" width="11" height="68"/><rect class="cls-2" x="78" y="164" width="11" height="59"/><rect class="cls-2" x="370" y="164" width="11" height="59"/><rect class="cls-2" x="78" y="65" width="11" height="45"/><rect class="cls-2" x="370" y="65" width="11" height="45"/></g></g></g></svg>