<svg xmlns="http://www.w3.org/2000/svg" viewBox="0 0 478.29 442.02"><defs><style>.cls-1{fill:none;fill-rule:evenodd;}</style></defs><g id="Layer_2" data-name="Layer 2"><g id="wolf"><g id="wolf_icon" data-name="wolf icon"><path class="cls-1" d="M203.56,88.85c22.74-2.75,52.16-4.34,72.84,1.87,1.6.47,7.42,2.28,14.6,4.7,14.31,4.81,25.75,9.24,33.15,12.22,91.48-9.57,154.14-9.88,154.14-9.88l-7.41,35.8-24.61,32L438.39,138,414,168.86l-6.57-26.92L384,172l-7.66-28.21-23.88,31.46L344.75,147l-22.57,42.64L321,230.8l23.86-31.49,7.69,28.24,23.86-31.46,7.15,24.79L406.38,193l7.88,27.48,24.41-30.83L445,214.1l-18.85,34.76c-30,1.3-55.33,4-74.43,6.63-43.44,5.9-68.83,9.34-100.72,21.57-18.34,7-51.65,21.89-51.65,21.89h0L213,237.89a68.87,68.87,0,0,0-27.42-2.19c-6.35.84-18.38,3.44-18.38,3.44h0l28.45-57.37-16.75-8.32-49.22,99.21c42-15.53,60.53-18.51,60.53-18.51l-18.66,83.73c37.62-23,49.93-29.27,49.93-29.27A307.73,307.73,0,0,0,189.84,442c-32-36-36-85.26-36-85.26a422.19,422.19,0,0,0-46.33,37.58c-18.19,17-40.9,41.43-40.9,41.43h0c1.27-70.7,36.33-112.9,36.33-112.9C47.89,316.6,0,341.75,0,341.75c7.2-21.48,22-55.22,52.86-85.86a211,211,0,0,1,35.52-28.31c-59-6.7-88.38,6-88.38,6a210.53,210.53,0,0,1,91.89-70c-44-46.54-76.06-46.54-76.06-46.54,80.34-8.47,104.38,2,104.38,2,4.67,27.22,13.85,37.21,13.85,37.21l16.32-9.16A147.63,147.63,0,0,1,136.52,95.9c-.85-10.18-2.91-38.8,10.08-67C150.63,20.12,161.36,0,161.36,0h0Z"/></g></g></g></svg>