<svg xmlns="http://www.w3.org/2000/svg" viewBox="0 0 458 428"><defs><style>.cls-1{fill:#fff;}</style></defs><g id="Layer_2" data-name="Layer 2"><g id="Layer_1-2" data-name="Layer 1"><path class="cls-1" d="M430,0V29H412V0H384V29H368V0H340V29H320V0H294V110H277v17H263V109H239v18H221V108H197v19H183V108H165V0H138V30H120V0H93V30H75V0H49V30H29V0H0V427.5c10.77,0,19.5-4.73,19.5-15.5H21c0,10.77,8.73,15.5,19.5,15.5S60,422.77,60,412c0,10.77,8.73,15.5,19.5,15.5S99,422.77,99,412h1c0,10.77,8.73,15.5,19.5,15.5S139,422.77,139,412h.5c0,10.77,10.69,16,24.5,16V224s-3-56,68-56c0,0,62,1,62,56V412h6c0,10.77,8.73,15.5,19.5,15.5S339,422.77,339,412c0,10.77,8.73,15.5,19.5,15.5S378,422.77,378,412h1c0,10.77,8.73,15.5,19.5,15.5S418,422.77,418,412h1c0,10.77,8.73,15.5,19.5,15.5S458,422.77,458,412V0ZM89,344H78V276H89Zm0-121H78V164H89Zm0-113H78V65H89ZM381,344H370V276h11Zm0-121H370V164h11Zm0-113H370V65h11Z"/></g></g></svg>