<svg xmlns="http://www.w3.org/2000/svg" viewBox="0 0 471 461.69"><defs><style>.cls-1{fill:#fff;}</style></defs><g id="Layer_2" data-name="Layer 2"><g id="Lion"><g id="Lion-icon"><path class="cls-1" d="M72.33,4.55c88.17-23.88,186,54,186,54a401,401,0,0,1-4.31-43.34c63.15,34.42,52,92.44,52,92.44L274.64,95.63C186.5,14.08,160,92.9,160,92.9c-21.66,80.24,65.73,88,65.73,88-38,120.67,32.93,157,32.93,157-.79,81.36-105.56,123.8-105.56,123.8L163,383.76C90.85,424.55,49,418.61,49,418.61L91.3,342l31-37.91L77.52,318.36l-16.83,2.83L0,323.9V291.29l47-40.5L0,224.2V167l41.05-21.32L9,93.59C90.38,61.61,138,72,138,72Z"/><path class="cls-1" d="M471,236,366.69,183l-4.79-5.79s1.89-18.68-35.33-39l-61.93-26.39s-49.72-61.11-83-20.33c0,0-34.76,68.45,68.57,73.88,0,0-55.8,116.45,28.32,162.34l116.19,41.85,18.17-36.08c-36.13,10.46-49.23-12.75-49.23-12.75-8.23-10.68-15.37-32.79,2.74-53.44,5-5.66,21.89-18.41,45.64-9.7,13.1,4.8,26.61,21.41,25.16,32.58ZM326.57,198.47a14.83,14.83,0,1,1,14.83-14.83A14.83,14.83,0,0,1,326.57,198.47Z"/></g></g></g></svg>