<svg xmlns="http://www.w3.org/2000/svg" viewBox="0 0 425.68 471.77"><defs><style>.cls-1{fill:#fff;}</style></defs><g id="Layer_2" data-name="Layer 2"><g id="Rose"><g id="Rose_-con" data-name="Rose -con"><polygon class="cls-1" points="215.58 0 314.33 13.41 316.79 99.37 248.21 88.43 245.21 165.96 313.55 183.73 311.4 144.13 292.76 145.15 293.52 159.23 264.44 151.67 266.05 110.18 344.17 122.64 347.26 201.83 250.24 209.36 174.31 105.8 215.58 0"/><polygon class="cls-1" points="335.55 102.36 334.9 79.87 414.44 80.86 425.68 222.91 271.4 302.86 130.24 222.24 104.31 85 177.94 45.12 153.19 108.56 241.32 228.77 366.62 219.06 362.22 106.61 335.55 102.36"/><path class="cls-1" d="M330.45,293.28,381,267.07c32.41,31.1,39.48,54.74,39.48,54.74C361.2,321.81,330.45,293.28,330.45,293.28Z"/><path class="cls-1" d="M209.5,289,271,324.11l34.66-18c17.23,44.85,2.05,93.67,2.05,93.67C200.56,351.17,209.5,289,209.5,289Z"/><path class="cls-1" d="M94.56,133.93l10.09,53.39C69,175.47,46.48,135.38,46.48,135.38,79.68,132.87,94.56,133.93,94.56,133.93Z"/><path class="cls-1" d="M110.47,218.15l3,16,54.16,30.93c-69.75,44.12-147.15,35-147.15,35C62.62,233.94,110.47,218.15,110.47,218.15Z"/><path class="cls-1" d="M148.28,296.27A254.18,254.18,0,0,0,191.39,272C189.2,311.12,203,336,203,336c-9.35,4.75-24.69,2-24.69,2l-28.13,34.09c10.52,20.16,37.4,6.68,37.4,6.68-27.35,45.72-69.55,27.94-69.55,27.94l-72.77,65H0l20.76-15.33c-16.73-44.62,20-68.3,20-68.3-11.54,34.51,17.94,37.19,17.94,37.19l44.7-42L127.69,356l27.55-33.31C146.15,306.65,148.28,296.27,148.28,296.27Z"/></g></g></g></svg>