<svg xmlns="http://www.w3.org/2000/svg" viewBox="0 0 475.45 367.06"><defs><style>.cls-1{fill:#fff;}</style></defs><g id="Layer_2" data-name="Layer 2"><g id="Stag_head" data-name="Stag head"><g id="Stag-head-icon"><path class="cls-1" d="M471.59,76.29l-17.33,7.25c5.87,15.38-7.24,20.89-7.24,20.89-4.42,2.18-11.44,2.94-15.48,1.61-7.41-2.44-12.46-9.23-13.09-10.11a66,66,0,0,0,9.13-9c43.17-55.47-6.41-87-6.41-87L411,15.76c23.15,16.72,15.09,38.33,5.58,54-6.14,10.12-17.93,17.64-17.93,17.64-25.22,12.88-43.48,7.76-52.72,3C355.44,83.73,360,73.31,360,73.31l-17.55-6.7c-3.93,9.84-11.82,10.57-16.06,10.13-3.82-.39-8.81-3.47-8.81-3.47a19.55,19.55,0,0,1-8.66-11.07c-2.31-8,1.42-18.87,1.42-18.87l-17-7.74C284.7,64,295.62,79.3,304.56,86.66h-.24c20,16,38,23.59,53.65,26.11l-3.09-.17s-.42,1.88-1.38,4.82c-19.65,41.24-57.06,24.36-57.06,24.36-26-12.24-16.14-33.41-16.14-33.41l-16.73-8.53c-18.92,55.1,43.48,64.36,43.63,64.38-8.3,3.87-33,10.65-44,11.51-44.35,3.49-74.35-3.32-93.17-10.91.23,0,60.27-8.65,41.36-63.71l-16.73,8.53S205.89,133,178.55,143c0,0-39,17.23-58.06-29.32l-.33-.89c15-2.6,27.77-7,50.57-24.88,9.16-6.78,22.06-22.21,12.83-52.36l-17,7.74S170.31,54.18,168,62.2a19.55,19.55,0,0,1-8.66,11.07s-5,3.08-8.81,3.47c-4.24.44-12.13-.29-16.06-10.13l-17.55,6.7s4.55,10.34,14,17c-9.2,4.74-27.52,10-52.87-3,0,0-11.79-7.52-17.93-17.64-9.51-15.65-17.57-37.26,5.58-54L55.53,0S6,31.51,49.12,87a64.07,64.07,0,0,0,8.24,8.19c-1.35,1.76-6.63,8.16-13.44,10.4-4,1.33-11.06.57-15.49-1.61,0,0-13.1-5.5-7.23-20.88L3.87,75.82S-9.67,97.46,13.91,117c0,0,29.83,23.36,58.62-11.67a73.67,73.67,0,0,0,28.78,8.2c0,.18-.42,14,11.35,31.88l-.38.17c-32.77,14.36-11.76,46-11.76,46,5.63,9.66,15.19,15.36,15.19,15.36l10.71-15.43c-7.7-6.53-9.44-9.15-9.44-9.15C106.05,167,119.52,163,119.52,163c2.78-.79,7.47-.14,9.3.54l-.25-.06s0-.18,5.15,2.52a199.62,199.62,0,0,0,45.82,22.15,179.32,179.32,0,0,0,20.72,5.33c-13.72,10.11-17.53,23.17-17.53,23.17-62.26-13.06-95.46,34.8-95.46,34.8C147,264.63,178.13,248,178.13,248l38.14,106.94c5.15,16.65,26.19,11.34,26.19,11.34,8.1-1.75,11-11.34,11-11.34l38.38-107.6c43.21,16.95,92.32,4.11,92.32,4.11-45.94-54.07-96.09-34.63-96.09-34.63a52.55,52.55,0,0,0-17.54-23.08,227.54,227.54,0,0,0,40.73-10.92c13.36-5.08,22.24-10.93,34.15-18.7,0,0,6.76-2.18,9.63-1.12,0,0,13.47,4,2.54,19.41,0,0-1.74,2.62-9.45,9.15L358.87,207s9.55-5.7,15.19-15.36c0,0,20.84-31.38-11.4-45.82,6.33-9.1,9.54-19.11,11.39-32.13a73.22,73.22,0,0,0,28.76-7.6c28.95,35.94,58.74,11.45,58.74,11.45C485.13,97.92,471.59,76.29,471.59,76.29Z"/></g></g></g></svg>