<svg xmlns="http://www.w3.org/2000/svg" viewBox="0 0 478.29 442.02"><defs><style>.cls-1{fill:#fff;fill-rule:evenodd;}</style></defs><g id="Layer_2" data-name="Layer 2"><g id="wolf"><g id="wolf_icon" data-name="wolf icon"><path class="cls-1" d="M324.15,107.64c-7.4-3-18.84-7.41-33.15-12.22-7.18-2.42-13-4.23-14.6-4.7-20.68-6.21-50.1-4.62-72.84-1.87L161.36,0S150.63,20.12,146.6,28.88c-13,28.22-10.93,56.84-10.08,67a147.63,147.63,0,0,0,13.86,51.17l-16.32,9.16s-9.18-10-13.85-37.21c0,0-24-10.42-104.38-2,0,0,32.06,0,76.06,46.54A210.53,210.53,0,0,0,0,233.62s29.34-12.74,88.38-6a211,211,0,0,0-35.52,28.31C22,286.53,7.2,320.27,0,341.75c0,0,47.89-25.15,103-18.88,0,0-35.06,42.2-36.33,112.9,0,0,22.71-24.39,40.9-41.43a422.19,422.19,0,0,1,46.33-37.58s3.93,49.25,36,85.26a307.73,307.73,0,0,1,31.61-133.41s-12.31,6.23-49.93,29.27l18.66-83.73s-18.5,3-60.53,18.51l49.22-99.21,16.75,8.32-28.45,57.37s12-2.6,18.38-3.44A68.87,68.87,0,0,1,213,237.89L199.34,299S232.65,284.1,251,277.06c31.89-12.23,57.28-15.67,100.72-21.57,19.1-2.59,44.39-5.33,74.43-6.63L445,214.1l-6.32-24.45-24.41,30.83L406.38,193l-22.86,27.88-7.15-24.79-23.86,31.46-7.69-28.24L321,230.8l1.22-41.18L344.75,147l7.67,28.23,23.88-31.46L384,172l23.45-30L414,168.86,438.39,138l7.88,27.51,24.61-32,7.41-35.8S415.63,98.07,324.15,107.64Zm-23.08,23.73c-4.35,5-11.21,8.7-18.18,8.7,0,0-22.49-3.71-34.4-30.24h.5s8-2.33,25.65-.17c8.56,1,19.37,5.14,33,9.71A35.36,35.36,0,0,1,301.07,131.37Z"/></g></g></g></svg>